<mxfile host="65bd71144e">
    <diagram id="VlTVIQ_uVNprqt_oUU2L" name="Home Screen">
        <mxGraphModel dx="936" dy="484" grid="1" gridSize="10" guides="1" tooltips="1" connect="1" arrows="1" fold="1" page="1" pageScale="1" pageWidth="850" pageHeight="1100" math="0" shadow="0">
            <root>
                <mxCell id="0"/>
                <mxCell id="1" parent="0"/>
                <mxCell id="2" value="&lt;font style=&quot;&quot;&gt;&lt;span style=&quot;font-size: 18px;&quot;&gt;The witch is dead app&lt;/span&gt;&lt;br&gt;&lt;font style=&quot;font-size: 10px;&quot;&gt;&lt;span style=&quot;margin: 0px; padding: 0px; border: 0px; font-family: &amp;quot;gg sans&amp;quot;, &amp;quot;Noto Sans&amp;quot;, &amp;quot;Helvetica Neue&amp;quot;, Helvetica, Arial, sans-serif; vertical-align: baseline; outline: 0px; color: rgb(219, 222, 225); text-align: left; background-color: rgba(2, 2, 2, 0.06);&quot;&gt;Once upon a time&lt;/span&gt;&lt;span style=&quot;margin: 0px; padding: 0px; border: 0px; font-family: &amp;quot;gg sans&amp;quot;, &amp;quot;Noto Sans&amp;quot;, &amp;quot;Helvetica Neue&amp;quot;, Helvetica, Arial, sans-serif; vertical-align: baseline; outline: 0px; color: rgb(219, 222, 225); text-align: left; background-color: rgba(2, 2, 2, 0.06);&quot;&gt;, there was a kind and wise and beautiful witch who lived in the forest with her familiars&lt;/span&gt;&lt;span style=&quot;margin: 0px; padding: 0px; border: 0px; font-family: &amp;quot;gg sans&amp;quot;, &amp;quot;Noto Sans&amp;quot;, &amp;quot;Helvetica Neue&amp;quot;, Helvetica, Arial, sans-serif; vertical-align: baseline; outline: 0px; color: rgb(219, 222, 225); text-align: left; background-color: rgba(2, 2, 2, 0.06);&quot;&gt;, and her life was&lt;br&gt;peaceful and happy until a FUCKING WITCH&lt;/span&gt;&lt;span style=&quot;margin: 0px; padding: 0px; border: 0px; font-family: &amp;quot;gg sans&amp;quot;, &amp;quot;Noto Sans&amp;quot;, &amp;quot;Helvetica Neue&amp;quot;, Helvetica, Arial, sans-serif; vertical-align: baseline; outline: 0px; color: rgb(219, 222, 225); text-align: left; background-color: rgba(2, 2, 2, 0.06);&quot;&gt;-HUNTER broke into her cottage and dragged her our and FUCKING&lt;br&gt;MURDERED HER and now she’s DEAD&lt;/span&gt;&lt;span style=&quot;margin: 0px; padding: 0px; border: 0px; font-family: &amp;quot;gg sans&amp;quot;, &amp;quot;Noto Sans&amp;quot;, &amp;quot;Helvetica Neue&amp;quot;, Helvetica, Arial, sans-serif; vertical-align: baseline; outline: 0px; color: rgb(219, 222, 225); text-align: left; background-color: rgba(2, 2, 2, 0.06);&quot;&gt;. But if you get revenge and kill him and bring his EYES to her corpse within a week&lt;br&gt;she’ll come back to life&lt;/span&gt;&lt;span style=&quot;margin: 0px; padding: 0px; border: 0px; font-family: &amp;quot;gg sans&amp;quot;, &amp;quot;Noto Sans&amp;quot;, &amp;quot;Helvetica Neue&amp;quot;, Helvetica, Arial, sans-serif; vertical-align: baseline; outline: 0px; color: rgb(219, 222, 225); text-align: left; background-color: rgba(2, 2, 2, 0.06);&quot;&gt;. Or so you’ve heard&lt;/span&gt;&lt;span style=&quot;margin: 0px; padding: 0px; border: 0px; font-family: &amp;quot;gg sans&amp;quot;, &amp;quot;Noto Sans&amp;quot;, &amp;quot;Helvetica Neue&amp;quot;, Helvetica, Arial, sans-serif; vertical-align: baseline; outline: 0px; color: rgb(219, 222, 225); text-align: left; background-color: rgba(2, 2, 2, 0.06);&quot;&gt;. Even if it doesn’t work&lt;/span&gt;&lt;span style=&quot;margin: 0px; padding: 0px; border: 0px; font-family: &amp;quot;gg sans&amp;quot;, &amp;quot;Noto Sans&amp;quot;, &amp;quot;Helvetica Neue&amp;quot;, Helvetica, Arial, sans-serif; vertical-align: baseline; outline: 0px; color: rgb(219, 222, 225); text-align: left; background-color: rgba(2, 2, 2, 0.06);&quot;&gt;, at least he’s dead&lt;/span&gt;&lt;span style=&quot;margin: 0px; padding: 0px; border: 0px; font-family: &amp;quot;gg sans&amp;quot;, &amp;quot;Noto Sans&amp;quot;, &amp;quot;Helvetica Neue&amp;quot;, Helvetica, Arial, sans-serif; vertical-align: baseline; outline: 0px; color: rgb(219, 222, 225); text-align: left; background-color: rgba(2, 2, 2, 0.06);&quot;&gt;. The Witch&lt;/span&gt;&lt;span style=&quot;margin: 0px; padding: 0px; border: 0px; font-family: &amp;quot;gg sans&amp;quot;, &amp;quot;Noto Sans&amp;quot;, &amp;quot;Helvetica Neue&amp;quot;, Helvetica, Arial, sans-serif; vertical-align: baseline; outline: 0px; color: rgb(219, 222, 225); text-align: left; background-color: rgba(2, 2, 2, 0.06);&quot;&gt;-Hunter has retreated to the&lt;br&gt;village&lt;/span&gt;&lt;span style=&quot;margin: 0px; padding: 0px; border: 0px; font-family: &amp;quot;gg sans&amp;quot;, &amp;quot;Noto Sans&amp;quot;, &amp;quot;Helvetica Neue&amp;quot;, Helvetica, Arial, sans-serif; vertical-align: baseline; outline: 0px; color: rgb(219, 222, 225); text-align: left; background-color: rgba(2, 2, 2, 0.06);&quot;&gt;, the FUCKING COWARD&lt;/span&gt;&lt;span style=&quot;margin: 0px; padding: 0px; border: 0px; font-family: &amp;quot;gg sans&amp;quot;, &amp;quot;Noto Sans&amp;quot;, &amp;quot;Helvetica Neue&amp;quot;, Helvetica, Arial, sans-serif; vertical-align: baseline; outline: 0px; color: rgb(219, 222, 225); text-align: left; background-color: rgba(2, 2, 2, 0.06);&quot;&gt;. Get him&lt;/span&gt;&lt;/font&gt;&lt;span style=&quot;font-size: 16px; margin: 0px; padding: 0px; border: 0px; font-family: &amp;quot;gg sans&amp;quot;, &amp;quot;Noto Sans&amp;quot;, &amp;quot;Helvetica Neue&amp;quot;, Helvetica, Arial, sans-serif; vertical-align: baseline; outline: 0px; color: rgb(219, 222, 225); text-align: left; background-color: rgba(2, 2, 2, 0.06);&quot;&gt;.&amp;nbsp;&lt;br&gt;&lt;/span&gt;Answer these questions!&lt;br&gt;&lt;/font&gt;" style="whiteSpace=wrap;html=1;aspect=fixed;" parent="1" vertex="1">
                    <mxGeometry x="250" y="170" width="340" height="340" as="geometry"/>
                </mxCell>
                <mxCell id="fr-jXe_23C4jaonc4Bjb-2" value="What is the Witch is Dead DM Tool:&lt;br&gt;brief explanation of campaign&amp;nbsp;&amp;nbsp;" style="whiteSpace=wrap;html=1;" vertex="1" parent="1">
                    <mxGeometry x="365" y="30" width="120" height="60" as="geometry"/>
                </mxCell>
            </root>
        </mxGraphModel>
    </diagram>
    <diagram id="6uwPcJgx6ONhXcBsmUZr" name="tHE pLAYERS">
        <mxGraphModel dx="1123" dy="581" grid="1" gridSize="10" guides="1" tooltips="1" connect="1" arrows="1" fold="1" page="1" pageScale="1" pageWidth="850" pageHeight="1100" math="0" shadow="0">
            <root>
                <mxCell id="0"/>
                <mxCell id="1" parent="0"/>
                <mxCell id="iFzs4Dohuowm4WlMSW6f-1" value="ROLL A D10 TO SEE WHAT YOU ARE:&lt;br&gt;&lt;br&gt;&lt;br&gt;&lt;br&gt;RNG Number Generator&amp;nbsp;&lt;br&gt;Blacked out rectangles. When number is clicked the black card flips around for your role and reveals animal + Their Traits.&lt;br&gt;Radio button for amout of players in the campaign so it revelas that many random cards&lt;br&gt;&lt;br&gt;&lt;div&gt;1. Fox C2 F2 S1 Q1 6. Hare C2 F2 S1 Q1&lt;/div&gt;&lt;div&gt;2. Cat C0 F1 S3 Q2 7. Magpie C2 F1 S1 Q2&lt;/div&gt;&lt;div&gt;3. Toad C1 F0 S2 Q1 8. Crow C2 F1 S2 Q1&lt;/div&gt;&lt;div&gt;4. Spider C2 F0 S3 Q1 9. Dog C1 F3 S0 Q1&lt;/div&gt;&lt;div&gt;5. Owl C3 F1 S1 Q2 10. Rat C1 F0 S2 Q2&lt;/div&gt;" style="rounded=0;whiteSpace=wrap;html=1;" vertex="1" parent="1">
                    <mxGeometry x="55" y="200" width="360" height="265" as="geometry"/>
                </mxCell>
                <mxCell id="iFzs4Dohuowm4WlMSW6f-2" value="&lt;div&gt;YOUR WITCH TAUGHT YOU A SPELL (D10):&lt;/div&gt;&lt;div&gt;None of these are flashy—little bits of hedge magic&lt;/div&gt;&lt;div&gt;to help out around the house. But they’ll have to do.&lt;/div&gt;&lt;div&gt;1. Unseen hand 6. Make flame&lt;/div&gt;&lt;div&gt;2. Conjure light 7. Tidy, clean, and mend&lt;/div&gt;&lt;div&gt;3. Speak human 8. Plant Growth&lt;/div&gt;&lt;div&gt;4. Lock/unlock,&lt;/div&gt;&lt;div&gt;open/close&lt;/div&gt;&lt;div&gt;&lt;br&gt;&lt;/div&gt;&lt;div&gt;9. Distract/Confuse&lt;/div&gt;&lt;div&gt;&lt;br&gt;&lt;/div&gt;&lt;div&gt;5. Conjure dinner 10. Make a book read itself aloud&lt;/div&gt;" style="rounded=0;whiteSpace=wrap;html=1;" vertex="1" parent="1">
                    <mxGeometry x="55" y="550" width="360" height="220" as="geometry"/>
                </mxCell>
                <mxCell id="iFzs4Dohuowm4WlMSW6f-3" value="Player Characters" style="rounded=1;whiteSpace=wrap;html=1;" vertex="1" parent="1">
                    <mxGeometry x="120" y="25" width="210" height="30" as="geometry"/>
                </mxCell>
                <mxCell id="iFzs4Dohuowm4WlMSW6f-4" value="Attaches a Spell to each character from above" style="rounded=1;whiteSpace=wrap;html=1;" vertex="1" parent="1">
                    <mxGeometry x="100" y="510" width="270" height="30" as="geometry"/>
                </mxCell>
                <mxCell id="iFzs4Dohuowm4WlMSW6f-5" value="&lt;div&gt;YOU ARE A CUTE WOODLAND ANIMAL.&lt;/div&gt;&lt;div&gt;&lt;br&gt;&lt;/div&gt;&lt;div&gt;You have four traits:&lt;/div&gt;&lt;div&gt;CLEVER (understand/interact with humans)&lt;/div&gt;&lt;div&gt;FIERCE (scare, drag, push, carry, bite, scratch)&lt;/div&gt;&lt;div&gt;SLY (sneak, steal, hide)&lt;/div&gt;&lt;div&gt;QUICK (outpace, climb, evade)&lt;/div&gt;" style="rounded=1;whiteSpace=wrap;html=1;" vertex="1" parent="1">
                    <mxGeometry x="45" y="80" width="385" height="110" as="geometry"/>
                </mxCell>
                <mxCell id="dAmLKm3QbRF3Hrt1JnhO-1" value="Character Cards for each animal&amp;nbsp;&lt;br&gt;flippable or hover for Traits&amp;nbsp;" style="rounded=1;whiteSpace=wrap;html=1;" vertex="1" parent="1">
                    <mxGeometry x="435" y="240" width="100" height="80" as="geometry"/>
                </mxCell>
                <mxCell id="dAmLKm3QbRF3Hrt1JnhO-2" value="Animal Name (Top)&lt;br&gt;&lt;br&gt;&lt;br&gt;Photo of animal&amp;nbsp;&lt;br&gt;empty space for filling in custom name (printout)&lt;br&gt;&lt;br&gt;Character traits&amp;nbsp;&lt;br&gt;&lt;br&gt;CLICK TO LEARN A WITCHES SPELL" style="rounded=1;whiteSpace=wrap;html=1;" vertex="1" parent="1">
                    <mxGeometry x="600" y="190" width="210" height="310" as="geometry"/>
                </mxCell>
                <mxCell id="m_eHI9LnEeAwfiTzXGa1-1" value="ROLEPLAY REMINDER/ HELP:&lt;br&gt;&lt;br&gt;&lt;br&gt;&lt;div&gt;When you try to do something, roll a D10 and add your most&lt;/div&gt;&lt;div&gt;relevant trait. The GM tells you what number you need to equal&lt;/div&gt;&lt;div&gt;or beat. If the task is dangerous, you gain a point of DANGER if&lt;/div&gt;&lt;div&gt;you fail. If you ever roll equal to or under your DANGER, you’re&lt;/div&gt;&lt;div&gt;in serious trouble—dead, trapped, lost, or captured.&lt;/div&gt;&lt;div&gt;&lt;br&gt;&lt;/div&gt;&lt;div&gt;&lt;br&gt;&lt;/div&gt;&lt;div&gt;USING MAGIC IS ALWAYS DANGEROUS.&lt;/div&gt;&lt;div&gt;&lt;br&gt;&lt;/div&gt;&lt;div&gt;The GM’s characters don’t use dice; they force you to roll them.&lt;/div&gt;&lt;div&gt;Remember: Most tasks that are normal to humans are really&lt;/div&gt;&lt;div&gt;difficult for animals, unless they’re broken down into smaller steps:&lt;/div&gt;&lt;div&gt;remember, you don’t have opposable thumbs, and all you know&lt;/div&gt;&lt;div&gt;of the human world is what the witch taught you. You can talk to&lt;/div&gt;&lt;div&gt;other animals of the same or similar species. (You can lower your&lt;/div&gt;&lt;div&gt;danger by solving, or running away from, your problems.)&lt;/div&gt;" style="whiteSpace=wrap;html=1;" vertex="1" parent="1">
                    <mxGeometry x="55" y="800" width="450" height="340" as="geometry"/>
                </mxCell>
                <mxCell id="u0Zs7-2ry0ynW-C8kosI-1" value="Viewed like a locked character in MK" style="ellipse;whiteSpace=wrap;html=1;" vertex="1" parent="1">
                    <mxGeometry x="440" y="340" width="90" height="90" as="geometry"/>
                </mxCell>
                <mxCell id="u0Zs7-2ry0ynW-C8kosI-2" value="Card Example&amp;nbsp;" style="text;html=1;align=center;verticalAlign=middle;resizable=0;points=[];autosize=1;strokeColor=none;fillColor=none;" vertex="1" parent="1">
                    <mxGeometry x="655" y="160" width="100" height="30" as="geometry"/>
                </mxCell>
            </root>
        </mxGraphModel>
    </diagram>
    <diagram id="wIIEuBSzTDtJ8uD_SaCD" name="The Villiage ">
        <mxGraphModel dx="1123" dy="1681" grid="1" gridSize="10" guides="1" tooltips="1" connect="1" arrows="1" fold="1" page="1" pageScale="1" pageWidth="850" pageHeight="1100" math="0" shadow="0">
            <root>
                <mxCell id="0"/>
                <mxCell id="1" parent="0"/>
                <mxCell id="WPoCyGMDXKS-ZfHf7MiV-1" value="What is your villiage like?" style="rounded=0;whiteSpace=wrap;html=1;" vertex="1" parent="1">
                    <mxGeometry x="80" y="-1040" width="280" height="80" as="geometry"/>
                </mxCell>
                <mxCell id="WPoCyGMDXKS-ZfHf7MiV-2" value="Roll Twice for attributes&amp;nbsp;&amp;nbsp;" style="ellipse;whiteSpace=wrap;html=1;" vertex="1" parent="1">
                    <mxGeometry x="160" y="-920" width="120" height="80" as="geometry"/>
                </mxCell>
                <mxCell id="mQ1CWFpBXp9BISkwJMDC-1" value="Dice animation and a pop up happens showing what traits happens&amp;nbsp;" style="text;html=1;align=center;verticalAlign=middle;resizable=0;points=[];autosize=1;strokeColor=none;fillColor=none;" vertex="1" parent="1">
                    <mxGeometry x="40" y="-820" width="380" height="30" as="geometry"/>
                </mxCell>
                <mxCell id="mQ1CWFpBXp9BISkwJMDC-2" value="&lt;div&gt;1. Under the thumb of the baron&lt;/div&gt;&lt;div&gt;2. Filled with cheery gnomes&lt;/div&gt;&lt;div&gt;3. Controlled by a creepy cult&lt;/div&gt;&lt;div&gt;4. Devoutly religious&lt;/div&gt;&lt;div&gt;5. Incredibly superstitious&lt;/div&gt;&lt;div&gt;6. At war with forest tribes&lt;/div&gt;&lt;div&gt;7. Built around a wizard college&lt;/div&gt;&lt;div&gt;8. Full of hardy mining folk&lt;/div&gt;&lt;div&gt;9. Shady and dangerous&lt;/div&gt;&lt;div&gt;10. Oppressively perfect&lt;/div&gt;" style="rounded=1;whiteSpace=wrap;html=1;" vertex="1" parent="1">
                    <mxGeometry x="70" y="-780" width="300" height="230" as="geometry"/>
                </mxCell>
                <mxCell id="mQ1CWFpBXp9BISkwJMDC-3" value="Side Div that populates what ur villiage is like:&lt;br&gt;&lt;br&gt;E.G.&lt;br&gt;&quot;The villiage of ________ is ____________&quot;&lt;br&gt;&lt;br&gt;to ---&amp;gt;&lt;br&gt;&lt;br&gt;&quot;Your villiage is&amp;nbsp;under the thumb of the baron&quot;&lt;br&gt;AND&amp;nbsp;&lt;br&gt;&quot;Your villiage is at war with forest tribesn&quot;&lt;br&gt;&lt;br&gt;After the dice roll" style="rounded=0;whiteSpace=wrap;html=1;" vertex="1" parent="1">
                    <mxGeometry x="555" y="-740" width="260" height="285" as="geometry"/>
                </mxCell>
                <mxCell id="4zMSNYMRQRztMN8ONn_6-1" value="&lt;div&gt;&lt;font style=&quot;font-size: 12px;&quot;&gt;1. Armed and tough&lt;/font&gt;&lt;/div&gt;&lt;div&gt;&lt;font style=&quot;font-size: 12px;&quot;&gt;2. Wizened and wise&lt;/font&gt;&lt;/div&gt;&lt;div&gt;&lt;font style=&quot;&quot;&gt;&lt;span style=&quot;font-size: 12px;&quot;&gt;3&lt;/span&gt;&lt;font style=&quot;font-size: 12px;&quot;&gt;. Drunk and violent&lt;/font&gt;&lt;/font&gt;&lt;/div&gt;&lt;div&gt;&lt;font style=&quot;font-size: 12px;&quot;&gt;4. Pious and aggressive&lt;/font&gt;&lt;/div&gt;&lt;div&gt;&lt;font style=&quot;font-size: 12px;&quot;&gt;5. Guarded and cowardly&lt;/font&gt;&lt;/div&gt;&lt;div&gt;&lt;font style=&quot;font-size: 12px;&quot;&gt;6. Magical and jealous&lt;/font&gt;&lt;/div&gt;&lt;div&gt;&lt;font style=&quot;font-size: 12px;&quot;&gt;7. Clever and cruel&lt;/font&gt;&lt;/div&gt;&lt;div&gt;&lt;font style=&quot;font-size: 12px;&quot;&gt;8. Duplicitous and hidden&lt;/font&gt;&lt;/div&gt;&lt;div&gt;&lt;font style=&quot;font-size: 12px;&quot;&gt;9. Jolly and well-meaning&lt;/font&gt;&lt;/div&gt;&lt;div&gt;&lt;font style=&quot;font-size: 12px;&quot;&gt;10. Headstrong and wild&lt;/font&gt;&lt;/div&gt;" style="whiteSpace=wrap;html=1;aspect=fixed;fontSize=10;" vertex="1" parent="1">
                    <mxGeometry x="70" y="-410" width="310" height="310" as="geometry"/>
                </mxCell>
                <mxCell id="4zMSNYMRQRztMN8ONn_6-2" value="THE WITCH-HUNTER IS (ROLL ONCE):" style="ellipse;whiteSpace=wrap;html=1;fontSize=10;" vertex="1" parent="1">
                    <mxGeometry x="170" y="-520" width="100" height="70" as="geometry"/>
                </mxCell>
                <mxCell id="mQ1CWFpBXp9BISkwJMDC-4" value="Mayber add a picture of a default fantasy &lt;br&gt;villiage or have different images for scenarios&amp;nbsp;" style="text;html=1;align=center;verticalAlign=middle;resizable=0;points=[];autosize=1;strokeColor=none;fillColor=none;" vertex="1" parent="1">
                    <mxGeometry x="550" y="-800" width="270" height="40" as="geometry"/>
                </mxCell>
                <mxCell id="4zMSNYMRQRztMN8ONn_6-3" value="&lt;font style=&quot;font-size: 12px;&quot;&gt;But heres the twist&lt;/font&gt;" style="ellipse;whiteSpace=wrap;html=1;fontSize=10;" vertex="1" parent="1">
                    <mxGeometry x="620" y="-440" width="160" height="100" as="geometry"/>
                </mxCell>
                <mxCell id="mQ1CWFpBXp9BISkwJMDC-5" value="The village folk are in on it&#10;2. A rival witch set her up&#10;3. The Witch-Hunter didn’t do it&#10;4. The Witch-Hunter is waiting for you&#10;5. The village folk are having a festival&#10;6. The Witch-Hunter died, and is being buried&#10;7. There are two (rival) Witch-Hunters in the village&#10;8. The village is abandoned&#10;9. The Witch-Hunter has dragged a suspect up for&#10;interrogation&#10;10. The village folk hate the Witch-Hunter" style="rounded=1;whiteSpace=wrap;html=1;" vertex="1" parent="1">
                    <mxGeometry x="545" y="-330" width="325" height="260" as="geometry"/>
                </mxCell>
                <mxCell id="4zMSNYMRQRztMN8ONn_6-4" style="edgeStyle=none;html=1;exitX=1;exitY=1;exitDx=0;exitDy=0;fontSize=10;" edge="1" parent="1" source="4zMSNYMRQRztMN8ONn_6-3" target="4zMSNYMRQRztMN8ONn_6-3">
                    <mxGeometry relative="1" as="geometry"/>
                </mxCell>
                <mxCell id="mQ1CWFpBXp9BISkwJMDC-8" value="&lt;span style=&quot;&quot;&gt;What is the name of your Villiage?&lt;/span&gt;" style="rounded=1;whiteSpace=wrap;html=1;" vertex="1" parent="1">
                    <mxGeometry x="585" y="-920" width="200" height="60" as="geometry"/>
                </mxCell>
                <mxCell id="4zMSNYMRQRztMN8ONn_6-5" value="1" style="text;html=1;align=center;verticalAlign=middle;resizable=0;points=[];autosize=1;strokeColor=none;fillColor=none;fontSize=12;" vertex="1" parent="1">
                    <mxGeometry x="115" y="-895" width="30" height="30" as="geometry"/>
                </mxCell>
                <mxCell id="4zMSNYMRQRztMN8ONn_6-6" value="2" style="text;html=1;align=center;verticalAlign=middle;resizable=0;points=[];autosize=1;strokeColor=none;fillColor=none;fontSize=12;" vertex="1" parent="1">
                    <mxGeometry x="535" y="-905" width="30" height="30" as="geometry"/>
                </mxCell>
                <mxCell id="4zMSNYMRQRztMN8ONn_6-7" value="3" style="text;html=1;align=center;verticalAlign=middle;resizable=0;points=[];autosize=1;strokeColor=none;fillColor=none;fontSize=12;" vertex="1" parent="1">
                    <mxGeometry x="95" y="-495" width="30" height="30" as="geometry"/>
                </mxCell>
                <mxCell id="4zMSNYMRQRztMN8ONn_6-8" value="4" style="text;html=1;align=center;verticalAlign=middle;resizable=0;points=[];autosize=1;strokeColor=none;fillColor=none;fontSize=12;" vertex="1" parent="1">
                    <mxGeometry x="565" y="-405" width="30" height="30" as="geometry"/>
                </mxCell>
            </root>
        </mxGraphModel>
    </diagram>
    <diagram id="xpyrDB7YnGEAmHyf3UlZ" name="Bottom of the site">
        <mxGraphModel dx="1123" dy="2781" grid="1" gridSize="10" guides="1" tooltips="1" connect="1" arrows="1" fold="1" page="1" pageScale="1" pageWidth="850" pageHeight="1100" math="0" shadow="0">
            <root>
                <mxCell id="0"/>
                <mxCell id="1" parent="0"/>
                <mxCell id="Y45PMTjYvJMj17GAkynw-1" value="Your One SHot is Ready&amp;nbsp;" style="rounded=0;whiteSpace=wrap;html=1;" vertex="1" parent="1">
                    <mxGeometry x="80" y="-2160" width="680" height="80" as="geometry"/>
                </mxCell>
                <mxCell id="Y45PMTjYvJMj17GAkynw-2" value="You're in this villiage with these animals (cards)&lt;br&gt;Shows all the info from the builder&amp;nbsp;" style="rounded=0;whiteSpace=wrap;html=1;" vertex="1" parent="1">
                    <mxGeometry x="80" y="-2040" width="680" height="150" as="geometry"/>
                </mxCell>
            </root>
        </mxGraphModel>
    </diagram>
</mxfile>